<svg width="512" height="512" viewBox="0 0 512 512" fill="none" xmlns="http://www.w3.org/2000/svg">
  <rect width="512" height="512" fill="transparent"/>
  <circle cx="256" cy="256" r="178" stroke="#e11d1d" stroke-width="2"/>
  <circle cx="256" cy="256" r="23" fill="#e11d1d"/>
  <circle cx="256" cy="256" r="7" fill="#300b0b"/>
  <path d="M209 213C196 225 188 241 188 257C188 273 196 289 209 301" stroke="#e11d1d" stroke-width="16" stroke-linecap="round"/>
  <path d="M303 213C316 225 324 241 324 257C324 273 316 289 303 301" stroke="#e11d1d" stroke-width="16" stroke-linecap="round"/>
  <path d="M184 190C164 210 152 232 152 257C152 282 164 304 184 324" stroke="#e11d1d" stroke-width="16" stroke-linecap="round"/>
  <path d="M328 190C348 210 360 232 360 257C360 282 348 304 328 324" stroke="#e11d1d" stroke-width="16" stroke-linecap="round"/>
</svg>
